<svg width="82" height="22" viewBox="0 0 82 22" fill="none" xmlns="http://www.w3.org/2000/svg">
<path d="M78.4905 2.53677C78.4905 2.07852 78.8642 1.70703 79.3252 1.70703H80.4105C80.8715 1.70703 81.2452 2.07852 81.2452 2.53677V16.4764C81.2452 16.9347 80.8715 17.3062 80.4105 17.3062H79.3252C78.8642 17.3062 78.4905 16.9347 78.4905 16.4764V2.53677Z" fill="white"/>
<path fill-rule="evenodd" clip-rule="evenodd" d="M66.4425 8.84281H67.7063C68.081 8.84281 68.3799 8.52401 68.5367 8.18568C68.8001 7.61756 69.4633 7.01738 70.8938 7.01738C72.9306 7.01738 73.3285 8.04073 73.2729 8.5524C73.2729 9.54809 72.8805 9.8302 70.6433 10.1289C70.4159 10.1646 70.1831 10.1976 69.9481 10.231C67.7247 10.5466 65.3008 10.8906 65.3008 13.7798C65.3008 16.9743 68.4729 17.3062 69.2242 17.3062C69.9755 17.3062 72.0624 17.1817 73.3146 15.8956C73.6902 17.0573 74.4833 17.3062 75.1928 17.3062H76.445C76.6755 17.3062 76.8624 17.1204 76.8624 16.8913V15.6467C76.8624 15.4176 76.6755 15.2318 76.445 15.2318H75.6937V8.09604C75.6937 7.63969 75.4433 5.026 70.9772 5.026C66.8108 5.026 66.0066 7.1761 65.8646 8.24879C65.8201 8.58474 66.1017 8.84281 66.4425 8.84281ZM73.1476 11.1661V13.0745C73.1476 14.0702 72.1042 15.2733 70.3929 15.2733C68.6816 15.2733 67.8886 14.3689 67.8886 13.7383C67.8886 12.2448 69.099 11.8714 70.8103 11.7054C72.0178 11.5883 72.3546 11.5395 73.1476 11.1661Z" fill="white"/>
<path fill-rule="evenodd" clip-rule="evenodd" d="M59.1237 16.7254C62.0282 16.7254 64.3827 14.2178 64.3827 11.1246C64.3827 8.03139 62.0282 5.52385 59.1237 5.52385C56.2192 5.52385 53.8646 8.03139 53.8646 11.1246C53.8646 14.2178 56.2192 16.7254 59.1237 16.7254ZM58.915 14.734C60.5516 14.734 61.8784 13.118 61.8784 11.1246C61.8784 9.1312 60.5516 7.51522 58.915 7.51522C57.2783 7.51522 55.9515 9.1312 55.9515 11.1246C55.9515 13.118 57.2783 14.734 58.915 14.734Z" fill="white"/>
<path d="M53.1968 5.85574C53.1968 5.39749 53.5705 5.026 54.0315 5.026H55.1168C55.5778 5.026 55.9515 5.39749 55.9515 5.85574V20.7911C55.9515 21.2493 55.5778 21.6208 55.1168 21.6208H54.0315C53.5705 21.6208 53.1968 21.2493 53.1968 20.7911V5.85574Z" fill="white"/>
<path d="M51.1935 1.74847C51.1935 2.50459 50.5768 3.11754 49.8161 3.11754C49.0554 3.11754 48.4387 2.50459 48.4387 1.74847C48.4387 0.99235 49.0554 0.379395 49.8161 0.379395C50.5768 0.379395 51.1935 0.99235 51.1935 1.74847Z" fill="white"/>
<path d="M48.4387 5.85569C48.4387 5.39743 48.8125 5.02595 49.2735 5.02595H50.3587C50.8197 5.02595 51.1935 5.39743 51.1935 5.85569V16.3934C51.1935 16.8517 50.8197 17.2231 50.3587 17.2231H49.2735C48.8125 17.2231 48.4387 16.8517 48.4387 16.3934V5.85569Z" fill="white"/>
<path d="M36.7515 5.85574C36.7515 5.39749 37.1252 5.026 37.5862 5.026H38.6714C39.1325 5.026 39.5062 5.39749 39.5062 5.85574V16.3935C39.5062 16.8517 39.1325 17.2232 38.6714 17.2232H37.5862C37.1252 17.2232 36.7515 16.8517 36.7515 16.3935V5.85574Z" fill="white"/>
<path d="M37.8363 11.3785L44.1044 5.26357C44.2604 5.1113 44.4704 5.026 44.6891 5.026H46.5357C46.9101 5.026 47.0952 5.47815 46.8271 5.73793L39.0037 13.3189C38.4749 13.8314 37.5862 13.4589 37.5862 12.7248V11.9707C37.5862 11.7479 37.6763 11.5345 37.8363 11.3785Z" fill="white"/>
<path d="M39.2759 12.6654L43.729 16.9871C43.8849 17.1385 44.0942 17.2232 44.3122 17.2232H46.4952C46.8694 17.2232 47.0545 16.7714 46.7868 16.5115L41.0147 10.9092C40.6876 10.5917 40.1644 10.5948 39.8412 10.9161L39.2688 11.485C38.9401 11.8118 38.9432 12.3426 39.2759 12.6654Z" fill="white"/>
<path d="M34.7482 1.74847C34.7482 2.50459 34.1315 3.11754 33.3708 3.11754C32.6101 3.11754 31.9934 2.50459 31.9934 1.74847C31.9934 0.99235 32.6101 0.379395 33.3708 0.379395C34.1315 0.379395 34.7482 0.99235 34.7482 1.74847Z" fill="white"/>
<path d="M31.9934 5.85569C31.9934 5.39743 32.3671 5.02595 32.8282 5.02595H33.9134C34.3744 5.02595 34.7482 5.39743 34.7482 5.85569V16.3934C34.7482 16.8517 34.3744 17.2231 33.9134 17.2231H32.8282C32.3671 17.2231 31.9934 16.8517 31.9934 16.3934V5.85569Z" fill="white"/>
<path d="M24.8146 2.53677C24.8146 2.07852 25.1883 1.70703 25.6493 1.70703H26.7345C27.1956 1.70703 27.5693 2.07852 27.5693 2.53677V14.5239C27.5693 14.753 27.7562 14.9387 27.9867 14.9387H28.8215C29.2825 14.9387 29.6562 15.3102 29.6562 15.7685V16.4764C29.6562 16.9347 29.2825 17.3062 28.8215 17.3062H26.9015C25.7489 17.3062 24.8146 16.3774 24.8146 15.2318V2.53677Z" fill="white"/>
<path d="M29.4893 5.026C29.9503 5.026 30.3241 5.39748 30.3241 5.85574V6.68548C30.3241 7.14373 29.9503 7.51522 29.4893 7.51522H22.8946C22.4336 7.51522 22.0598 7.14373 22.0598 6.68548L22.0598 5.85574C22.0598 5.39748 22.4336 5.026 22.8946 5.026L29.4893 5.026Z" fill="white"/>
<path d="M15.3585 3.85612L11.3235 7.04795C11.6302 7.33526 11.8762 7.6805 12.0471 8.06346C12.218 8.44641 12.3103 8.85939 12.3187 9.27824C12.3271 9.6971 12.2513 10.1134 12.0959 10.5028C11.9405 10.8922 11.7085 11.2469 11.4135 11.5461L15.3319 14.8108C15.5202 14.9701 15.7498 15.0732 15.9945 15.1082C16.2391 15.1433 16.4888 15.1089 16.7146 15.0089C16.9404 14.909 17.1331 14.7477 17.2706 14.5435C17.4081 14.3393 17.4847 14.1007 17.4916 13.8551V4.83241C17.4848 4.58977 17.4098 4.35387 17.2752 4.15133C17.1406 3.94879 16.9517 3.78767 16.7299 3.68615C16.5081 3.58463 16.2622 3.54675 16.0198 3.57678C15.7775 3.60681 15.5484 3.70357 15.3585 3.85612Z" fill="white"/>
<path d="M6.52181 7.18213L2.55519 3.87626C2.36694 3.717 2.13722 3.6139 1.89254 3.57886C1.64786 3.54383 1.3982 3.57829 1.17239 3.67826C0.94657 3.77824 0.753803 3.93966 0.616339 4.14388C0.478874 4.3481 0.402318 4.5868 0.395508 4.83242L0.395508 13.8574C0.402112 14.1003 0.47696 14.3365 0.611589 14.5394C0.746218 14.7422 0.935257 14.9035 1.15733 15.0052C1.3794 15.1068 1.62565 15.1446 1.86823 15.1144C2.1108 15.0842 2.34003 14.9871 2.52999 14.8341L6.61179 11.6034C6.0152 11.0261 5.67128 10.2385 5.65444 9.41109C5.6376 8.58367 5.9492 7.78293 6.52181 7.18213Z" fill="white"/>
<path d="M8.98692 11.1865C8.62275 11.1762 8.26972 11.0595 7.97194 10.8509C7.67415 10.6423 7.44482 10.3511 7.31262 10.0137C7.18041 9.67622 7.15119 9.30755 7.22861 8.95371C7.30602 8.59986 7.48664 8.27655 7.74789 8.02417C8.00914 7.77179 8.33943 7.60154 8.69748 7.5347C9.05553 7.46787 9.42545 7.5074 9.76102 7.64837C10.0966 7.78934 10.3829 8.02548 10.5842 8.3273C10.7855 8.62911 10.8929 8.9832 10.8928 9.34531C10.8894 9.59061 10.8373 9.83284 10.7397 10.0581C10.642 10.2834 10.5006 10.4874 10.3236 10.6584C10.1466 10.8294 9.93749 10.964 9.70814 11.0546C9.47878 11.1453 9.2337 11.1901 8.98692 11.1865Z" fill="white"/>
<path d="M8.98699 16.0894C8.78107 16.0836 8.58145 16.0176 8.41309 15.8996C8.24474 15.7816 8.11512 15.6169 8.04046 15.4261C7.9658 15.2352 7.9494 15.0267 7.99333 14.8267C8.03726 14.6266 8.13955 14.4439 8.28742 14.3014C8.43529 14.1588 8.62217 14.0627 8.82467 14.0252C9.02718 13.9877 9.23633 14.0103 9.42595 14.0903C9.61557 14.1703 9.77725 14.3041 9.89076 14.475C10.0043 14.6459 10.0646 14.8462 10.0641 15.051C10.0622 15.1896 10.0328 15.3265 9.9776 15.4539C9.92241 15.5812 9.84252 15.6965 9.74249 15.7931C9.64246 15.8898 9.52425 15.9659 9.39462 16.0171C9.26499 16.0683 9.12647 16.0937 8.98699 16.0917" fill="white"/>
</svg>
